#!OML:ASF G:\JayActor3\Patient Classification 1\Patient 1\Session 2\male.ASF
:FULLY-SPECIFIED
:DEGREES
2387
root 50.0329 16.6836 -7.00104 1085.83 -31.2982 716.495
lowerback 0.64035 0.00274132 -6.18792
upperback 5.54184 0.190158 -1.87762
thorax 5.39303 -0.165981 1.51404
lowerneck -2.20312 -9.81143 -10.7259
upperneck 8.97679 -15.4139 22.7529
head 5.72908 -7.15604 7.91006
rclavicle 4.6118e-014 9.54166e-015
rhumerus -27.6484 10.0773 -91.9548
rradius 36.9373
rwrist -0.48938
rhand -24.1635 3.03751
rfingers 7.12502
rthumb 2.31946 -26.9296
lclavicle 4.6118e-014 9.54166e-015
lhumerus -31.0756 -0.272882 77.9202
lradius 22.9501
lwrist 9.27931
lhand -24.8668 19.7858
lfingers 7.12502
lthumb 1.64023 49.7593
rfemur -23.6744 -0.505655 24.2197
rtibia 49.2715
rfoot -28.6753 -14.363
rtoes 7.43462
lfemur -9.82221 8.30775 -16.9083
ltibia 25.4141
lfoot -19.2905 2.39145
ltoes -13.5564
2388
root 50.0755 16.6766 -7.00167 1085.82 -32.3748 716.521
lowerback 0.532648 -0.0527739 -6.28044
upperback 5.46695 0.123436 -1.8911
thorax 5.38107 -0.201606 1.54913
lowerneck -2.02131 -9.86693 -10.7988
upperneck 8.64914 -15.4654 22.9014
head 5.62619 -7.2093 7.97292
rclavicle 1.70955e-014 3.81667e-014
rhumerus -27.8123 10.2554 -91.9327
rradius 36.7125
rwrist -0.379428
rhand -24.1071 3.0827
rfingers 7.12502
rthumb 2.37394 -26.8838
lclavicle 1.70955e-014 3.81667e-014
lhumerus -30.9306 -0.722623 78.2067
lradius 23.9275
lwrist 10.149
lhand -24.8793 19.7278
lfingers 7.12502
lthumb 1.62816 49.7014
rfemur -23.4342 -1.39386 24.3998
rtibia 49.68
rfoot -28.9917 -15.0987
rtoes 9.22631
lfemur -9.78248 8.68502 -17.1525
ltibia 25.5504
lfoot -19.4978 2.81578
ltoes -13.7568
2389
root 50.1169 16.6696 -7.002 1085.82 -33.4085 716.535
lowerback 0.434267 -0.118894 -6.3496
upperback 5.395 0.0412622 -1.89647
thorax 5.36798 -0.243929 1.57887
lowerneck -1.83215 -9.92948 -10.8721
upperneck 8.30061 -15.5229 23.0509
head 5.51743 -7.2671 8.03595
rclavicle 9.30312e-014 -1.74931e-014
rhumerus -27.9466 10.4228 -91.893
rradius 36.4716
rwrist -0.265792
rhand -24.1282 3.10159
rfingers 7.12502
rthumb 2.3535 -26.8652
lclavicle 9.30312e-014 -1.74931e-014
lhumerus -30.8002 -1.17288 78.5184
lradius 24.953
lwrist 10.9933
lhand -24.9225 19.6499
lfingers 7.12502
lthumb 1.58642 49.6237
rfemur -23.1599 -2.23875 24.5585
rtibia 49.992
rfoot -29.3247 -15.7218
rtoes 11.0622
lfemur -9.75987 9.04414 -17.381
ltibia 25.7021
lfoot -19.7013 3.23355
ltoes -13.9678
2390
root 50.1569 16.6631 -7.00228 1085.82 -34.3998 716.527
lowerback 0.345036 -0.194994 -6.38851
upperback 5.32403 -0.056002 -1.88904
thorax 5.35164 -0.292478 1.60434
lowerneck -1.63597 -9.99712 -10.9497
upperneck 7.93676 -15.5837 23.197
head 5.404 -7.32808 8.09876
rclavicle -2.5842e-014 -1.59028e-015
rhumerus -28.0573 10.574 -91.8364
rradius 36.2202
rwrist -0.135682
rhand -24.2003 3.07013
rfingers 7.12502
rthumb 2.28389 -26.8974
lclavicle -2.5842e-014 -1.59028e-015
lhumerus -30.6775 -1.61467 78.853
lradius 26.0125
lwrist 11.7777
lhand -24.9868 19.5595
lfingers 7.12502
lthumb 1.52436 49.5338
rfemur -22.8646 -3.03601 24.7085
rtibia 50.2055
rfoot -29.6645 -16.284
rtoes 12.6726
lfemur -9.75962 9.39375 -17.5812
ltibia 25.8686
lfoot -19.9002 3.63207
ltoes -14.1633
2391
root 50.1955 16.6562 -7.00241 1085.84 -35.3491 716.496
lowerback 0.266716 -0.279996 -6.39698
upperback 5.25559 -0.16703 -1.8703
thorax 5.33253 -0.346628 1.62393
lowerneck -1.4324 -10.0675 -11.0362
upperneck 7.56206 -15.6458 23.3426
head 5.28746 -7.39105 8.16349
rclavicle -1.19271e-015 2.06736e-014
rhumerus -28.1533 10.7099 -91.7656
rradius 35.9753
rwrist -0.0106071
rhand -24.2252 3.0072
rfingers 7.12502
rthumb 2.25988 -26.9606
lclavicle -1.19271e-015 2.06736e-014
lhumerus -30.5637 -2.05458 79.2078
lradius 27.1045
lwrist 12.5007
lhand -25.1355 19.5074
lfingers 7.12502
lthumb 1.38068 49.4827
rfemur -22.5414 -3.80458 24.8522
rtibia 50.3175
rfoot -30.0031 -16.8017
rtoes 13.9829
lfemur -9.77141 9.72807 -17.7538
ltibia 26.0447
lfoot -20.1008 4.01053
ltoes -14.3102
2392
root 50.2323 16.649 -7.00239 1085.86 -36.2625 716.453
lowerback 0.190888 -0.374041 -6.39472
upperback 5.18934 -0.290959 -1.83641
thorax 5.31536 -0.407072 1.65256
lowerneck -1.23177 -10.1405 -11.1395
upperneck 7.19085 -15.7103 23.4843
head 5.17456 -7.45547 8.22964
rclavicle 7.95139e-015 -4.77083e-015
rhumerus -28.2394 10.8439 -91.6767
rradius 35.7449
rwrist 0.110588
rhand -24.2921 2.92505
rfingers 7.12502
rthumb 2.19526 -27.0434
lclavicle 7.95139e-015 -4.77083e-015
lhumerus -30.4596 -2.47475 79.5803
lradius 28.2252
lwrist 13.1456
lhand -25.3476 19.5017
lfingers 7.12502
lthumb 1.17585 49.4782
rfemur -22.1966 -4.54435 24.982
rtibia 50.3283
rfoot -30.318 -17.2932
rtoes 14.9075
lfemur -9.79528 10.0676 -17.9059
ltibia 26.2258
lfoot -20.3065 4.33242
ltoes -14.3026
2393
root 50.267 16.6425 -7.002 1085.89 -37.145 716.406
lowerback 0.11536 -0.473055 -6.38974
upperback 5.12503 -0.421885 -1.79018
thorax 5.30085 -0.4712 1.69194
lowerneck -1.03042 -10.216 -11.2465
upperneck 6.82324 -15.7777 23.6171
head 5.06316 -7.52139 8.29352
rclavicle 2.42517e-014 1.59028e-014
rhumerus -28.3217 10.9659 -91.5703
rradius 35.5389
rwrist 0.21289
rhand -24.3284 2.83344
rfingers 7.12502
rthumb 2.16021 -27.1354
lclavicle 2.42517e-014 1.59028e-014
lhumerus -30.3644 -2.87503 79.9588
lradius 29.3689
lwrist 13.6996
lhand -25.5765 19.5397
lfingers 7.12502
lthumb 0.954756 49.5173
rfemur -21.8348 -5.24007 25.0873
rtibia 50.2395
rfoot -30.5966 -17.7537
rtoes 15.5654
lfemur -9.82353 10.4119 -18.0451
ltibia 26.4056
lfoot -20.4978 4.64125
ltoes -14.348
